<?xml version="1.0" standalone="no"?>
<!DOCTYPE svg PUBLIC "-//W3C//DTD SVG 20010904//EN"
 "http://www.w3.org/TR/2001/REC-SVG-20010904/DTD/svg10.dtd">
<svg version="1.0" xmlns="http://www.w3.org/2000/svg"
 width="87.000000pt" height="80.000000pt" viewBox="0 0 87.000000 80.000000"
 preserveAspectRatio="xMidYMid meet">

<g transform="translate(0.000000,80.000000) scale(0.100000,-0.100000)"
fill="#000000" stroke="none">
<path d="M339 709 c-38 -38 -11 -107 57 -149 l37 -24 36 21 c41 23 81 76 81
107 0 12 -7 31 -15 43 -13 19 -24 21 -96 21 -66 0 -85 -4 -100 -19z m89 -11
c8 -8 15 -8 26 1 24 20 59 9 70 -22 12 -32 -12 -71 -61 -100 -30 -17 -30 -17
-70 12 -44 32 -60 70 -43 101 12 22 59 27 78 8z"/>
<path d="M218 550 c-52 -28 -93 -82 -117 -156 -28 -85 -28 -134 0 -141 14 -4
18 -10 12 -22 -4 -9 -9 -51 -11 -94 l-4 -77 346 0 346 0 0 78 c0 97 -12 116
-86 138 l-55 16 28 33 c15 19 36 36 46 40 20 7 20 14 7 85 -12 64 -30 87 -82
101 -85 22 -150 -19 -168 -108 -12 -55 -11 -58 11 -78 13 -11 35 -32 48 -47
l23 -26 -33 -10 c-19 -5 -41 -13 -50 -16 -14 -6 -18 3 -23 51 -14 110 -64 196
-136 233 -48 24 -55 24 -102 0z m77 -10 c4 -6 -7 -10 -25 -10 -18 0 -29 4 -25
10 3 6 15 10 25 10 10 0 22 -4 25 -10z m390 -35 c45 -44 34 -55 -47 -49 -40 3
-87 6 -105 6 -34 2 -34 8 0 46 30 33 118 32 152 -3z m-366 -9 c22 -12 51 -52
51 -71 0 -14 -89 -2 -118 15 -41 25 -59 25 -67 -1 -4 -11 -9 -18 -11 -16 -10
10 21 59 45 72 34 18 65 18 100 1z m-155 -33 c-7 -16 -17 -43 -20 -61 -6 -28
-1 -37 39 -77 l46 -45 -39 -11 c-21 -6 -50 -9 -65 -5 -26 7 -27 10 -22 49 9
61 24 108 47 145 24 39 34 43 14 5z m233 -16 c19 -37 43 -122 43 -154 0 -29
-39 -40 -90 -24 l-39 11 46 45 c40 40 45 49 39 77 -3 18 -13 46 -21 61 -8 15
-10 25 -5 22 6 -4 18 -21 27 -38z m236 -14 c56 -5 57 -6 57 -37 -1 -48 -40
-86 -90 -86 -35 0 -80 53 -80 93 0 41 8 50 35 42 11 -4 46 -9 78 -12z m-333
-50 c0 -18 20 -16 20 2 0 8 7 15 15 15 24 0 18 -48 -10 -75 -32 -33 -78 -33
-110 0 -27 26 -31 49 -16 88 l10 25 45 -22 c25 -11 45 -27 46 -33z m323 -100
c-7 -2 -21 -2 -30 0 -10 3 -4 5 12 5 17 0 24 -2 18 -5z m-308 -23 c22 -11 46
-20 54 -20 8 0 23 -7 33 -17 24 -21 27 -143 3 -143 -10 0 -15 15 -17 57 -3 51
-6 59 -31 73 -25 14 -30 13 -57 -2 -28 -16 -32 -16 -60 0 -27 15 -32 16 -57 2
-27 -15 -45 -60 -24 -60 6 0 11 7 11 15 0 8 9 19 20 25 16 8 27 7 50 -7 29
-17 31 -17 60 0 46 28 70 10 70 -53 l0 -50 -99 0 c-93 0 -99 1 -106 23 l-8 22
-4 -22 c-2 -13 -11 -23 -19 -23 -11 0 -14 15 -14 63 0 73 10 86 77 106 23 6
45 16 48 21 9 15 26 12 70 -10z m206 -19 c-8 -15 -3 -31 27 -77 21 -33 41 -65
46 -71 5 -10 -5 -13 -43 -13 -43 0 -50 3 -54 23 l-4 22 -8 -23 c-4 -12 -16
-22 -26 -22 -16 0 -19 8 -19 59 0 76 6 90 44 107 42 18 48 17 37 -5z m74 9
c-3 -5 -10 -10 -16 -10 -5 0 -9 5 -9 10 0 6 7 10 16 10 8 0 12 -4 9 -10z m55
6 c0 -11 -19 -15 -25 -6 -3 5 1 10 9 10 9 0 16 -2 16 -4z m107 -28 c8 -7 13
-35 13 -79 0 -62 -2 -69 -20 -69 -18 0 -20 7 -20 56 0 34 -4 53 -10 49 -5 -3
-10 -28 -10 -56 l0 -49 -50 0 -50 0 46 69 c33 50 44 75 39 90 -6 19 -4 20 21
10 16 -5 34 -15 41 -21z m-317 12 c0 -5 -4 -10 -10 -10 -5 0 -10 5 -10 10 0 6
5 10 10 10 6 0 10 -4 10 -10z m124 -40 l7 -25 -19 24 c-11 14 -17 31 -14 39 6
17 15 4 26 -38z m116 32 c0 -5 -7 -17 -15 -28 -15 -19 -20 -8 -9 20 6 17 24
22 24 8z m-68 -57 c3 -14 1 -28 -3 -31 -5 -3 -9 9 -9 25 0 38 6 40 12 6z"/>
<path d="M552 399 c2 -6 8 -10 13 -10 5 0 11 4 13 10 2 6 -4 11 -13 11 -9 0
-15 -5 -13 -11z"/>
<path d="M640 394 c0 -8 5 -12 10 -9 6 3 10 10 10 16 0 5 -4 9 -10 9 -5 0 -10
-7 -10 -16z"/>
<path d="M573 347 c-6 -10 21 -20 43 -15 10 1 19 8 21 14 4 13 -56 14 -64 1z"/>
<path d="M220 385 c0 -8 5 -15 10 -15 6 0 10 7 10 15 0 8 -4 15 -10 15 -5 0
-10 -7 -10 -15z"/>
<path d="M240 329 c0 -11 28 -19 45 -13 25 10 17 21 -15 21 -16 0 -30 -4 -30
-8z"/>
<path d="M485 177 c-4 -10 -5 -21 -1 -24 10 -10 18 4 13 24 -4 17 -4 17 -12 0z"/>
</g>
</svg>
