<?xml version="1.0" standalone="no"?>
<!DOCTYPE svg PUBLIC "-//W3C//DTD SVG 20010904//EN"
 "http://www.w3.org/TR/2001/REC-SVG-20010904/DTD/svg10.dtd">
<svg version="1.0" xmlns="http://www.w3.org/2000/svg"
 width="80.000000pt" height="78.000000pt" viewBox="0 0 80.000000 78.000000"
 preserveAspectRatio="xMidYMid meet">

<g transform="translate(0.000000,78.000000) scale(0.100000,-0.100000)"
fill="#000000" stroke="none">
<path d="M382 658 c-16 -16 -15 -28 5 -50 14 -16 15 -22 4 -40 -15 -24 -7 -36
14 -18 19 16 19 40 0 67 -10 14 -12 24 -5 28 12 7 13 25 2 25 -4 0 -13 -5 -20
-12z"/>
<path d="M242 618 c-16 -16 -15 -39 3 -62 10 -13 11 -24 5 -37 -12 -22 -13
-29 -2 -29 5 0 15 11 22 25 11 20 10 28 -3 48 -9 14 -13 34 -10 46 6 24 2 26
-15 9z"/>
<path d="M532 618 c-15 -15 -15 -45 -1 -54 7 -4 9 -21 6 -40 -3 -19 -2 -34 3
-34 16 0 23 50 11 77 -8 18 -9 29 -1 38 14 17 -3 28 -18 13z"/>
<path d="M340 485 c-10 -12 -10 -18 0 -30 10 -12 9 -16 -6 -21 -114 -36 -195
-124 -205 -221 -5 -44 15 -39 23 6 10 57 31 93 82 138 144 127 360 53 406
-138 13 -54 36 -69 25 -16 -24 121 -90 193 -208 231 -15 5 -16 8 -5 26 11 17
10 22 -2 30 -24 15 -96 12 -110 -5z m80 -30 c-7 -8 -18 -15 -25 -15 -7 0 -18
7 -25 15 -11 13 -7 15 25 15 32 0 36 -2 25 -15z"/>
<path d="M50 112 c0 -15 5 -33 12 -40 9 -9 97 -12 335 -12 l323 0 16 25 c36
55 36 55 -341 55 l-345 0 0 -28z m674 -1 c17 -27 -28 -31 -335 -29 -290 3
-314 4 -317 21 -3 16 17 17 322 17 179 0 327 -4 330 -9z"/>
</g>
</svg>
