<?xml version="1.0" standalone="no"?>
<!DOCTYPE svg PUBLIC "-//W3C//DTD SVG 20010904//EN"
 "http://www.w3.org/TR/2001/REC-SVG-20010904/DTD/svg10.dtd">
<svg version="1.0" xmlns="http://www.w3.org/2000/svg"
 width="65.000000pt" height="79.000000pt" viewBox="0 0 65.000000 79.000000"
 preserveAspectRatio="xMidYMid meet">

<g transform="translate(0.000000,79.000000) scale(0.100000,-0.100000)"
fill="#000000" stroke="none">
<path d="M208 640 c-42 -22 -70 -59 -87 -113 -16 -47 -3 -114 38 -195 38 -76
117 -182 135 -182 15 0 65 58 107 125 80 128 95 233 44 306 -17 23 -46 50 -65
60 -46 25 -124 24 -172 -1z m162 -15 c53 -28 90 -87 90 -145 0 -62 -67 -201
-138 -288 l-27 -33 -47 64 c-57 78 -105 176 -114 233 -7 47 18 116 54 147 49
44 122 53 182 22z"/>
<path d="M215 536 c-41 -41 -29 -83 37 -130 l41 -29 35 19 c39 21 72 67 72
101 0 29 -47 65 -74 57 -27 -9 -36 -9 -63 0 -17 5 -29 1 -48 -18z m66 -7 c15
-8 24 -7 35 2 11 9 21 9 39 1 38 -18 34 -62 -10 -101 -20 -17 -42 -31 -50 -31
-7 0 -30 15 -49 34 -40 37 -48 78 -18 95 22 13 29 13 53 0z"/>
<path d="M106 208 c-25 -39 -48 -107 -42 -123 4 -13 40 -15 231 -15 256 0 249
-2 219 77 -25 68 -40 83 -85 83 -55 0 -58 -18 -3 -22 46 -3 47 -4 66 -52 10
-27 17 -55 14 -63 -7 -18 -414 -19 -421 0 -3 6 3 35 14 62 19 49 20 50 65 53
56 4 52 22 -4 22 -30 0 -43 -5 -54 -22z"/>
</g>
</svg>
